<svg width="15" height="16" viewBox="0 0 15 16" fill="none" xmlns="http://www.w3.org/2000/svg">
<path d="M14.7188 11.3438C14.9062 11.5312 15 11.7812 15 12C14.9688 12.5312 14.5938 13 13.9688 13H2C1.375 13 1 12.5312 1 12C0.96875 11.7812 1.0625 11.5312 1.25 11.3438C1.84375 10.6875 3 9.71875 3 6.5C3 4.09375 4.6875 2.15625 7 1.65625V1C7 0.46875 7.4375 0 8 0C8.53125 0 8.96875 0.46875 8.96875 1V1.65625C11.2812 2.15625 12.9688 4.09375 12.9688 6.5C12.9688 9.71875 14.125 10.6875 14.7188 11.3438ZM3.09375 11.5H12.875C12.2188 10.6562 11.5 9.1875 11.4688 6.53125C11.4688 6.53125 11.5 6.53125 11.5 6.5C11.5 4.59375 9.90625 3 8 3C6.0625 3 4.5 4.59375 4.5 6.5C4.5 6.53125 4.5 6.53125 4.5 6.53125C4.46875 9.1875 3.75 10.6562 3.09375 11.5ZM8 16C6.875 16 6 15.125 6 14H9.96875C9.96875 15.125 9.09375 16 8 16Z" fill="black" fill-opacity="0.5"/>
</svg>
