<svg width="20" height="14" viewBox="0 0 20 14" fill="none" xmlns="http://www.w3.org/2000/svg">
<path d="M17.625 11.0938C18.0938 12.0312 18.7812 12.7812 18.7812 12.7812C19 13 19.0312 13.3125 18.9375 13.5625C18.8125 13.8438 18.5625 14 18.2812 14C16.5938 14 15.25 13.375 14.3438 12.8125C13.75 12.9375 13.125 13 12.5 13C9.78125 13 7.5 11.75 6.5 9.96875C6.21875 9.90625 5.90625 9.875 5.625 9.8125C4.71875 10.375 3.375 11.0312 1.71875 11.0312C1.40625 11.0312 1.15625 10.8438 1.03125 10.5938C0.9375 10.3125 1 10 1.1875 9.8125C1.1875 9.78125 1.875 9.03125 2.375 8.09375C1.5 7.21875 1 6.15625 1 5C1 2.25 3.90625 0 7.5 0C10.1875 0 12.5 1.28125 13.4688 3.09375C16.5938 3.4375 19 5.5 19 8C19 9.1875 18.4688 10.25 17.625 11.0938ZM5.34375 8.1875L5.96875 8.34375C6.46875 8.46875 6.96875 8.5 7.5 8.5C10.1875 8.5 12.5 6.90625 12.5 5C12.5 3.125 10.1875 1.5 7.5 1.5C4.78125 1.5 2.5 3.125 2.5 5C2.5 5.90625 3 6.59375 3.40625 7L4.1875 7.78125L3.71875 8.75C3.625 8.90625 3.53125 9.0625 3.46875 9.21875C3.90625 9.0625 4.375 8.84375 4.8125 8.53125L5.34375 8.1875ZM16.5625 10C16.9688 9.59375 17.5 8.90625 17.5 8C17.5 6.46875 15.9688 5.15625 13.9688 4.6875C13.9688 4.8125 14 4.90625 14 5C14 7.53125 11.5625 9.625 8.375 9.96875C9.28125 10.875 10.8125 11.5 12.5 11.5C13 11.5 13.5312 11.4688 14.0312 11.3438L14.625 11.1875L15.1875 11.5312C15.625 11.8125 16.0625 12.0625 16.5312 12.2188C16.4375 12.0625 16.3438 11.9062 16.2812 11.75L15.7812 10.7812L16.5625 10Z" fill="black" fill-opacity="0.5"/>
</svg>
