<svg width="16" height="19" viewBox="0 0 16 19" fill="none" xmlns="http://www.w3.org/2000/svg">
<path d="M11.0851 15.94V17.315C11.0851 17.7963 10.707 18.14 10.2601 18.14H0.910077C0.428827 18.14 0.0850768 17.7963 0.0850768 17.315V4.665C0.0850768 4.21813 0.428827 3.84 0.910077 3.84H3.38508V14.015C3.38508 15.0806 4.24445 15.94 5.31008 15.94H11.0851ZM11.0851 4.115C11.0851 4.59625 11.4288 4.94 11.9101 4.94H15.4851V14.015C15.4851 14.4963 15.107 14.84 14.6601 14.84H5.31008C4.82883 14.84 4.48508 14.4963 4.48508 14.015V1.365C4.48508 0.918127 4.82883 0.540002 5.31008 0.540002H11.0851V4.115ZM15.2101 3.04938C15.382 3.22125 15.4851 3.4275 15.4851 3.63375V3.84H12.1851V0.540002H12.3913C12.5976 0.540002 12.8038 0.643127 12.9757 0.815002L15.2101 3.04938Z" fill="#C2C7D0"/>
</svg>
