<svg width="100" height="82" viewBox="0 0 100 82" fill="none" xmlns="http://www.w3.org/2000/svg">
<g filter="url(#filter0_d_76_259)">
<path d="M21.7675 25.1291C21.8062 23.0563 21.7671 20.9754 21.766 18.9018C21.7644 16.2065 21.5543 13.0397 25.0123 12.2248C26.1488 11.957 27.4828 12.0824 28.6533 12.0824L33.8015 12.0844L70.2265 12.084C73.2234 12.0809 77.2365 11.4647 78.2 15.3592C78.5179 16.644 78.3736 18.1844 78.3738 19.5096L78.3722 25.1291C82.0207 25.1211 84.8257 24.8873 87.6822 27.7486C90.0347 30.1049 90.2658 32.4295 90.2671 35.5674L90.2703 38.8451C90.2669 41.7643 89.6607 43.9067 87.5281 46.0143C84.7818 48.7283 81.8835 48.393 78.3722 48.3871L78.374 54.4727C78.3742 55.5465 78.4773 56.7315 78.2992 57.7875C77.749 61.0498 75.0533 61.2252 72.5072 61.207L63.8408 61.1984C63.1544 61.1986 61.6966 61.4682 61.1144 61.0227C60.632 60.6537 60.5566 60.0037 60.9953 59.5619C61.4621 59.092 62.4917 59.244 63.1101 59.2475L70.83 59.2488C76.108 59.252 76.4099 59.6932 76.4082 54.6789L76.4056 48.3871H65.5029H23.7953L23.7947 54.6983C23.7906 59.4727 23.8761 59.2455 28.3587 59.2469L38.1273 59.2444C38.499 59.2424 38.9134 59.2037 39.2806 59.2533C40.0113 59.3518 40.4232 60.2994 39.8806 60.8574C39.2318 61.5246 30.6548 61.2041 29.324 61.2037C26.4953 61.2026 22.7125 61.8697 21.8769 58.1311C21.641 57.0762 21.7646 55.624 21.7648 54.5248L21.7675 48.3871C18.1508 48.3934 15.2027 48.7621 12.3841 45.9543C10.5587 44.1361 9.83111 41.9188 9.8213 39.3867L9.81849 35.6051C9.81332 32.3791 9.94736 30.1502 12.4514 27.6469C15.1862 24.9127 18.2125 25.1195 21.7675 25.1291ZM25.7302 14.1281C23.2642 14.759 23.7931 17.4158 23.7935 19.3574L23.7953 25.1291H74.4384H76.4056L76.4082 19.8363C76.4078 15.3801 76.8257 14.1277 72.2138 14.1268L25.7302 14.1281ZM18.2374 27.1338C15.2569 27.3588 12.7389 29.2854 12.0081 32.2088C11.6265 33.735 11.6725 38.4641 11.8109 40.2858C12.0499 43.4309 14.4163 45.9783 17.5647 46.2936C18.7531 46.4127 19.9787 46.3543 21.1732 46.3547L80.4697 46.359C80.9 46.3606 81.3363 46.4041 81.7646 46.3541C85.2476 46.3631 87.9224 43.5178 88.2064 40.1287C88.2693 39.3766 88.2294 38.5983 88.2298 37.843L88.2269 34.3402C88.2128 32.3145 87.6722 30.5395 86.1906 29.092C84.2158 27.1631 82.3451 27.1338 79.7972 27.1328L18.2374 27.1338Z" fill="white"/>
<path d="M21.914 41.44C20.8217 41.2109 19.7629 40.9605 18.8828 40.2303C15.7282 37.6131 17.3189 32.3594 21.3476 31.9723C25.9656 31.1387 29.5224 37.8557 24.1297 40.975L24.0861 40.966L24.0947 41.0055L24.0451 41.0273L24.0584 41.0818C24.5806 41.5607 25.7303 40.8332 26.3734 41.1105C27.426 41.5647 26.9387 42.7404 25.7301 43.0352C24.0058 43.3314 22.7959 43.115 21.914 41.44ZM21.7674 33.8412C18.7573 34.1734 17.615 38.3854 21.7674 39.4824C21.806 39.0889 21.8289 38.6807 22.1258 38.3832C22.9217 37.8676 23.7744 37.8457 23.6324 39.0623C25.9318 37.2381 24.7863 33.8166 21.7674 33.8412Z" fill="white"/>
<path d="M73.1057 39.3239C75.5688 40.974 69.9829 42.9104 67.259 40.61C63.9977 37.8557 65.7248 32.2793 69.9596 31.9723C71.9061 31.6686 74.8801 33.1793 73.059 34.2682C72.4315 34.6434 71.7682 34.0133 71.1442 33.858C68.5487 33.2123 66.5237 36.303 67.9924 38.5151C69.6454 41.0049 71.9825 39.0569 73.1057 39.3239Z" fill="white"/>
<path d="M36.3657 34.7744C36.3659 36.1028 36.5737 38.3756 35.9849 39.535C35.0079 41.4584 32.4472 42.1004 30.5841 41.1123C28.2081 39.8522 28.6243 37.2104 28.6355 34.9699C28.6409 33.8938 28.2097 32.3584 29.528 31.9723C31.931 32.4028 29.3306 37.3965 31.2349 39.1844C32.178 40.0699 33.812 39.6557 34.2745 38.4619C34.7866 37.1407 33.9777 33.0678 34.7036 32.2803C35.0542 31.9 35.7364 31.9604 36.0786 32.3168C36.5337 32.7908 36.3667 34.1465 36.3657 34.7744Z" fill="white"/>
<path d="M77.1447 37.5764C77.1486 38.4037 77.2527 39.8326 77.0966 40.6043C76.9132 41.5114 75.7515 41.861 75.2462 40.9815C74.9417 40.4512 75.032 33.0481 75.1689 32.6071C75.2722 32.2741 75.4917 32.133 75.7845 31.9723C77.7576 31.7317 77.1511 34.2836 77.1447 35.6125H81.0118C81.0167 34.6537 80.5513 31.7123 82.2722 31.9645C82.6355 32.0178 82.8738 32.2742 83.0736 32.56C83.2277 34.7065 83.1671 38.2071 83.0634 40.3516C83.0329 40.9817 82.8495 41.3362 82.224 41.5651C80.4132 41.5299 81.0042 38.9037 81.0118 37.5764H77.1447Z" fill="white"/>
<path d="M39.7395 41.4401C39.3024 41.4866 38.8122 41.4334 38.5709 41.0034C38.3038 40.5276 38.3959 32.9637 38.5208 32.5823C38.6159 32.2918 38.8057 32.1992 39.0672 32.0701C39.4313 32.0436 40.0375 32.0153 40.2385 32.395C40.5594 33.0006 40.4543 40.5787 40.3249 40.9424C40.2336 41.1983 39.9643 41.326 39.7395 41.4401Z" fill="white"/>
<path d="M46.6556 33.8413C46.1236 33.901 42.9619 33.9026 42.6255 33.7168C41.9293 33.3321 42.0789 32.2588 43.0394 32.0702C43.8957 32.0653 48.4628 31.9356 48.9064 32.2192C49.1525 32.3764 49.2164 32.7088 49.28 32.9723C49.0017 34.2889 45.7205 38.1967 44.723 39.6135C45.3886 39.6114 50.5392 39.0719 49.0955 41.0709C48.8877 41.3588 48.5593 41.3913 48.2353 41.4401L44.6255 41.4459C43.8236 41.4473 41.1185 41.736 41.9836 40.0657C42.8738 38.3467 45.4259 35.5674 46.6556 33.8413Z" fill="white"/>
<path d="M52.8443 33.8412C52.0951 33.8187 49.3484 34.0559 50.4361 32.4742C50.6375 32.1816 50.8826 32.1305 51.2168 32.0701L54.5644 32.0674C55.2298 32.0676 55.9392 32.0271 56.5986 32.117C57.2679 32.208 57.7023 32.9869 57.1855 33.5414C56.7398 34.0195 55.4105 33.8455 54.8089 33.8412V39.9101C54.8623 42.4213 52.982 41.5295 52.8679 40.7523C52.7644 40.0475 52.8408 39.2287 52.8412 38.5141L52.8443 33.8412Z" fill="white"/>
<path d="M59.173 41.44C58.1095 40.7172 58.5597 37.7457 58.5595 36.4723C58.5593 35.0727 57.9499 32.3586 59.5429 32.0701C60.287 32.057 63.8067 31.915 64.2397 32.2789C64.6044 32.5852 64.6567 33.2148 64.3196 33.5619C63.9177 33.9758 63.1554 33.8424 62.6417 33.8402L60.4923 33.8412V35.7711C60.8556 35.7689 65.672 35.4678 64.0198 37.1984C63.4939 37.7494 61.2886 37.5803 60.4923 37.5764V38.8271V39.6135C61.3278 39.6096 63.9804 39.3937 64.5394 40.1447C64.9692 40.7221 64.5179 41.4234 63.8683 41.4705C63.0384 41.5307 59.8583 41.5385 59.173 41.44Z" fill="white"/>
<path d="M48.9021 64.1212C48.1902 64.7529 46.6107 66.98 45.5267 66.6863C44.8068 66.491 44.7087 65.4132 44.523 64.8263L43.2183 60.5906C42.4468 58.0423 41.5152 55.5093 40.8523 52.9316C40.689 52.297 40.8804 51.9884 41.4673 51.6941C42.0632 51.6646 42.6374 51.8962 43.2091 52.0316L52.906 54.3822C53.7679 54.5851 56.0283 54.8449 56.6468 55.456C57.4281 56.2279 54.2794 58.6552 53.613 59.2457C55.5462 61.5617 60.7644 64.4375 57.4216 67.9878C56.3935 69.0089 54.5634 69.2238 53.3292 68.4502C52.5947 67.9898 49.5365 64.8335 48.9021 64.1212ZM43.224 54.0439L44.5144 58.1877C45.0804 60.0515 45.6374 61.9804 46.3722 63.7847L48.9021 61.2019C49.6794 62.2416 53.0999 65.6793 54.137 66.549C54.8105 67.1138 55.6292 67.0263 56.2154 66.3341C57.0741 64.906 55.554 63.9998 54.637 63.0953C53.3597 61.8355 52.005 60.5763 50.8064 59.2457C51.7365 58.3619 52.6529 57.4677 53.613 56.6164C50.1628 55.7119 46.679 54.9332 43.224 54.0439Z" fill="white"/>
</g>
<defs>
<filter id="filter0_d_76_259" x="-4" y="-9" width="108" height="108" filterUnits="userSpaceOnUse" color-interpolation-filters="sRGB">
<feFlood flood-opacity="0" result="BackgroundImageFix"/>
<feColorMatrix in="SourceAlpha" type="matrix" values="0 0 0 0 0 0 0 0 0 0 0 0 0 0 0 0 0 0 127 0" result="hardAlpha"/>
<feOffset dy="4"/>
<feGaussianBlur stdDeviation="2"/>
<feComposite in2="hardAlpha" operator="out"/>
<feColorMatrix type="matrix" values="0 0 0 0 0 0 0 0 0 0 0 0 0 0 0 0 0 0 0.25 0"/>
<feBlend mode="normal" in2="BackgroundImageFix" result="effect1_dropShadow_76_259"/>
<feBlend mode="normal" in="SourceGraphic" in2="effect1_dropShadow_76_259" result="shape"/>
</filter>
</defs>
</svg>
